<?xml version="1.0" standalone="no"?>
<!DOCTYPE svg PUBLIC "-//W3C//DTD SVG 20010904//EN"
 "http://www.w3.org/TR/2001/REC-SVG-20010904/DTD/svg10.dtd">
<svg version="1.0" xmlns="http://www.w3.org/2000/svg"
 width="239.000000pt" height="291.000000pt" viewBox="0 0 239.000000 291.000000"
 preserveAspectRatio="xMidYMid meet">

<g transform="translate(0.000000,291.000000) scale(0.100000,-0.100000)"
fill="#000000" stroke="none">
<path d="M1177 2756 c-6 -15 10 -26 30 -19 15 5 5 33 -12 33 -7 0 -15 -6 -18
-14z"/>
<path d="M810 2721 c-8 -3 -16 -13 -16 -23 -2 -21 33 -31 40 -11 8 21 -6 41
-24 34z"/>
<path d="M1560 2705 c-8 -9 -6 -14 6 -19 25 -9 30 -7 30 12 0 21 -21 25 -36 7z"/>
<path d="M1137 2413 c-31 -95 -57 -175 -57 -178 0 -3 9 -5 19 -5 16 0 27 22
59 118 l39 117 37 -112 c21 -62 41 -115 44 -117 4 -2 24 -7 44 -11 l36 -7 69
104 68 103 6 -65 c4 -36 7 -92 8 -126 l1 -61 39 -13 40 -13 63 53 c35 29 76
73 92 99 32 51 38 55 -99 -58 -106 -88 -102 -91 -105 89 -1 63 -5 134 -8 158
l-7 44 -71 -104 c-112 -164 -129 -187 -134 -188 -3 0 -27 64 -53 143 -80 232
-65 229 -130 30z"/>
<path d="M450 2556 c-9 -12 -7 -17 9 -26 18 -9 21 -8 21 9 0 26 -15 34 -30 17z"/>
<path d="M1916 2554 c-11 -28 -7 -35 14 -24 23 13 26 26 6 33 -8 3 -17 -1 -20
-9z"/>
<path d="M857 2418 c-4 -62 -7 -143 -7 -180 0 -38 -3 -68 -7 -68 -5 0 -54 38
-110 85 -57 47 -103 82 -103 79 0 -32 99 -138 166 -177 17 -10 83 12 85 28 1
5 4 62 8 125 l6 115 69 -100 c38 -55 70 -102 72 -103 1 -2 10 0 18 5 14 8 0
33 -84 156 -56 81 -102 147 -104 147 -2 0 -6 -51 -9 -112z"/>
<path d="M1041 2195 c-90 -20 -157 -43 -223 -77 -61 -30 -65 -36 -46 -67 11
-19 14 -18 77 14 86 43 157 64 258 76 148 17 334 -19 449 -86 23 -14 45 -25
48 -25 3 0 12 13 21 30 l15 29 -72 35 c-40 19 -107 44 -148 56 -100 28 -290
36 -379 15z"/>
<path d="M1158 2116 c-24 -18 -23 -32 4 -50 29 -21 41 -20 69 3 23 19 24 19 5
40 -22 24 -53 27 -78 7z"/>
<path d="M960 2080 c-24 -24 -17 -48 16 -56 27 -7 74 18 74 39 0 38 -58 49
-90 17z"/>
<path d="M1347 2093 c-15 -14 -6 -43 18 -59 48 -31 105 8 69 47 -17 18 -73 26
-87 12z"/>
<path d="M1535 2014 c-17 -17 -17 -36 0 -35 6 0 16 9 23 19 17 26 -1 38 -23
16z"/>
<path d="M830 2012 c0 -5 6 -16 13 -27 10 -13 16 -15 21 -6 4 6 2 18 -4 26
-13 16 -30 20 -30 7z"/>
<path d="M1085 1940 c-111 -22 -213 -78 -298 -163 -112 -112 -168 -241 -170
-392 -4 -265 167 -493 428 -571 90 -27 231 -25 320 5 188 62 340 222 390 411
19 71 19 219 0 290 -54 202 -223 367 -428 415 -66 16 -176 18 -242 5z m128
-66 c30 -60 28 -76 -3 -56 -27 17 -59 15 -66 -3 -7 -18 -38 -20 -32 -2 3 6 13
36 23 65 25 68 43 67 78 -4z m137 -16 l14 -43 10 38 c9 34 36 53 36 25 0 -28
-28 -102 -39 -106 -6 -2 -17 11 -25 30 -7 18 -17 42 -21 53 -7 17 -9 15 -17
-17 -6 -21 -16 -38 -24 -38 -17 0 -17 0 2 66 13 46 18 53 33 45 10 -6 24 -29
31 -53z m-327 5 c16 -18 20 -35 18 -65 -1 -14 -66 -58 -86 -58 -5 0 -57 102
-52 105 1 1 16 10 32 18 40 21 68 21 88 0z m488 -34 c41 -29 52 -54 38 -81 -7
-13 -17 -26 -23 -30 -21 -14 -61 -7 -89 16 l-29 23 33 47 c18 25 35 46 37 46
2 0 17 -9 33 -21z m-621 -59 c29 -29 26 -74 -6 -99 -32 -25 -52 -26 -82 -5
-30 21 -29 68 3 99 29 30 58 32 85 5z m405 6 c200 -53 324 -224 313 -431 -14
-263 -275 -445 -527 -366 -298 93 -395 446 -186 679 46 51 137 106 201 121 58
13 143 12 199 -3z m373 -115 c24 -42 26 -51 14 -51 -4 0 -16 14 -26 31 -13 21
-21 28 -29 20 -7 -7 -5 -18 6 -35 23 -34 3 -43 -21 -9 -17 24 -22 25 -36 14
-13 -11 -19 -12 -29 -2 -9 10 -9 14 3 21 8 5 29 18 45 29 42 28 49 26 73 -18z
m-895 -22 c43 -23 49 -61 16 -103 -26 -34 -64 -32 -91 4 -15 21 -17 31 -8 56
6 17 21 36 33 42 28 14 25 14 50 1z m947 -82 c0 -18 -99 -52 -113 -38 -13 13
-12 15 43 34 56 19 70 20 70 4z m26 -113 c7 -52 -3 -68 -44 -71 -15 0 -36 -3
-46 -5 -30 -5 -31 20 -1 28 17 4 24 11 21 21 -3 8 -6 19 -6 24 0 5 -11 9 -25
9 -38 0 -32 28 8 33 86 11 85 11 93 -39z m-986 -24 l0 -50 -39 0 c-46 0 -71 8
-71 22 0 6 20 8 45 6 l46 -3 6 37 c8 52 13 47 13 -12z m985 -122 c9 -8 -20
-98 -31 -98 -9 0 -10 8 -4 31 5 18 7 36 4 40 -9 16 -24 9 -24 -10 0 -27 -10
-51 -22 -51 -6 0 -7 16 -3 40 5 31 4 40 -8 40 -9 0 -17 -15 -21 -40 -3 -22
-11 -40 -16 -40 -13 0 -13 21 1 74 l11 43 55 -13 c30 -7 56 -14 58 -16z m-979
-13 c21 -51 18 -61 -25 -73 -60 -19 -68 -16 -79 30 -12 48 -1 72 29 63 11 -4
19 -2 19 4 0 6 9 11 21 11 13 0 25 -11 35 -35z m121 -299 c-4 -9 -13 -13 -22
-10 -18 7 -20 31 -2 37 17 6 31 -9 24 -27z m651 5 c-5 -24 -38 -27 -38 -3 0
10 3 21 6 25 11 11 35 -5 32 -22z m-552 -52 c10 -17 -13 -36 -27 -22 -12 12
-4 33 11 33 5 0 12 -5 16 -11z m452 -12 c2 -12 -3 -17 -17 -17 -12 0 -21 6
-21 13 0 31 32 34 38 4z m-345 -23 c9 -10 -4 -34 -19 -34 -8 0 -14 6 -14 13 0
22 19 35 33 21z m233 -5 c10 -17 -13 -36 -27 -22 -12 12 -4 33 11 33 5 0 12
-5 16 -11z m-116 -24 c0 -8 -7 -15 -15 -15 -8 0 -15 7 -15 15 0 8 7 15 15 15
8 0 15 -7 15 -15z"/>
<path d="M1167 1883 c-12 -12 -7 -33 8 -33 17 0 19 9 7 28 -5 7 -11 9 -15 5z"/>
<path d="M955 1846 c-16 -12 -16 -14 -1 -44 14 -28 20 -31 36 -22 25 14 26 56
1 69 -13 7 -23 6 -36 -3z"/>
<path d="M1467 1788 c-16 -28 -17 -33 -2 -47 11 -12 20 -13 32 -5 32 20 39 41
19 63 -25 27 -28 27 -49 -11z"/>
<path d="M810 1740 c-16 -30 4 -62 37 -58 38 4 52 32 29 57 -24 27 -52 27 -66
1z"/>
<path d="M1122 1759 c-122 -24 -230 -110 -285 -227 -29 -62 -32 -75 -32 -167
1 -90 4 -106 30 -160 37 -77 118 -158 192 -193 52 -24 70 -27 163 -27 98 0
110 2 170 32 220 108 295 365 166 568 -60 93 -151 154 -261 174 -66 12 -82 12
-143 0z m118 -63 c0 -8 9 -18 20 -21 23 -7 80 -53 80 -64 0 -4 -16 -16 -35
-27 -27 -14 -37 -16 -47 -6 -17 17 -29 15 -22 -3 5 -12 25 -15 95 -15 l89 0 0
-40 0 -40 -90 0 c-79 0 -90 -2 -90 -17 0 -10 19 -29 43 -43 l42 -26 60 42 c87
60 115 77 115 70 0 -4 -97 -80 -159 -123 -3 -2 3 -19 12 -38 19 -40 22 -91 7
-129 -12 -31 7 -47 26 -22 7 10 18 15 25 11 8 -6 7 -10 -5 -17 -24 -13 -20
-26 14 -43 30 -15 40 -35 19 -35 -6 0 -24 9 -39 20 -28 20 -29 20 -35 1 -4
-13 -12 -18 -21 -14 -13 5 -13 8 1 23 30 33 8 43 -27 10 -11 -10 -36 -26 -54
-35 -24 -11 -34 -23 -34 -39 0 -21 -4 -23 -32 -21 -25 2 -34 8 -36 24 -2 12
-17 28 -35 37 -18 9 -42 25 -54 36 -24 22 -52 16 -33 -8 7 -7 10 -19 7 -26 -4
-8 -8 -5 -12 10 -9 27 -15 28 -49 1 -15 -12 -30 -18 -34 -14 -7 6 19 30 42 38
8 3 7 10 -1 25 -7 12 -9 24 -4 27 5 3 12 -4 16 -14 6 -21 35 -18 35 3 0 15 52
85 63 86 4 0 7 -7 7 -15 0 -8 3 -15 8 -15 14 1 42 28 42 41 0 8 -61 59 -135
113 -74 55 -133 101 -131 104 2 2 57 -33 120 -78 131 -91 146 -99 146 -77 0 9
-16 24 -35 33 -35 16 -75 61 -75 83 0 6 -18 11 -40 11 l-40 0 0 40 c0 39 1 40
35 40 29 0 36 5 51 36 10 20 36 50 58 66 23 17 40 34 39 39 -2 5 17 9 42 9 32
0 45 -4 45 -14z"/>
<path d="M1144 1656 c-33 -15 -74 -60 -74 -82 0 -24 29 -15 59 18 24 27 36 33
70 32 23 -1 49 -8 59 -17 13 -12 22 -13 35 -5 18 9 18 11 1 29 -16 18 -73 39
-104 39 -8 -1 -29 -7 -46 -14z"/>
<path d="M1140 1575 c-10 -12 -10 -15 4 -15 9 0 16 7 16 15 0 8 -2 15 -4 15
-2 0 -9 -7 -16 -15z"/>
<path d="M1070 1471 c0 -14 58 -69 78 -74 9 -3 34 -8 54 -12 50 -8 96 -48 104
-90 8 -45 -2 -73 -39 -106 -51 -47 -43 -76 11 -43 43 25 65 63 70 118 7 88
-50 145 -171 171 -15 3 -36 14 -47 25 -20 20 -60 27 -60 11z"/>
<path d="M1230 1340 c0 -5 5 -10 10 -10 6 0 10 5 10 10 0 6 -4 10 -10 10 -5 0
-10 -4 -10 -10z"/>
<path d="M1247 1312 c-16 -18 -16 -20 4 -46 11 -14 25 -24 30 -21 13 9 11 48
-4 69 -12 16 -14 16 -30 -2z"/>
<path d="M1233 1235 c4 -9 7 -24 7 -32 0 -13 3 -13 15 -3 20 17 19 27 -7 41
-18 10 -20 9 -15 -6z"/>
<path d="M1072 1219 c-11 -17 -11 -24 -1 -37 22 -29 53 -52 72 -52 27 0 20 29
-13 57 -16 13 -30 31 -30 39 0 20 -13 17 -28 -7z"/>
<path d="M1133 1233 c-9 -3 -10 -10 -3 -24 15 -27 30 -24 30 6 0 25 -4 28 -27
18z"/>
<path d="M716 1604 c-19 -18 -19 -20 -6 -45 7 -12 21 -19 40 -19 24 0 31 5 36
27 11 43 -38 69 -70 37z"/>
<path d="M1695 1433 c8 -35 13 -39 26 -26 15 15 2 53 -18 53 -12 0 -14 -6 -8
-27z"/>
<path d="M720 1271 c0 -33 10 -44 29 -31 18 10 6 60 -14 60 -10 0 -15 -10 -15
-29z"/>
<path d="M676 1282 c-10 -16 4 -64 18 -59 17 6 18 30 3 51 -9 13 -16 15 -21 8z"/>
<path d="M180 1129 c-41 -11 -76 -22 -77 -23 -2 -2 8 -37 22 -80 63 -193 186
-378 335 -503 l65 -54 26 31 25 30 109 0 109 0 -84 52 c-111 67 -248 205 -312
313 -26 44 -61 118 -77 165 -22 62 -35 85 -48 87 -10 1 -52 -7 -93 -18z m174
-215 c18 -39 15 -54 -8 -35 -12 10 -22 7 -53 -12 -21 -13 -43 -26 -49 -30 -7
-4 -14 0 -18 8 -3 10 11 23 44 42 37 21 48 32 44 45 -10 34 22 18 40 -18z m61
-104 c4 -6 -3 -18 -14 -28 -18 -15 -19 -19 -7 -35 13 -17 16 -17 39 -2 18 11
27 13 32 5 4 -7 3 -15 -1 -19 -77 -64 -102 -79 -112 -69 -7 7 -3 17 14 32 23
19 24 23 10 41 -13 19 -15 19 -33 2 -23 -20 -43 -22 -42 -4 0 11 86 85 101 86
4 1 10 -4 13 -9z m144 -154 c27 -28 10 -48 -18 -22 -16 15 -19 15 -24 2 -3 -8
1 -20 8 -26 21 -18 8 -32 -17 -19 -27 15 -47 -3 -28 -26 7 -8 10 -18 7 -22 -8
-7 -57 24 -57 37 0 14 82 100 95 100 6 0 22 -11 34 -24z"/>
<path d="M2085 1093 c-23 -78 -95 -218 -144 -280 -81 -103 -190 -196 -296
-252 l-50 -26 110 -3 c110 -3 110 -3 130 -32 11 -17 26 -30 33 -30 7 0 57 44
110 97 95 95 184 215 235 318 32 65 82 213 74 221 -6 6 -152 43 -174 44 -6 0
-19 -26 -28 -57z m133 -58 c12 -3 22 -13 22 -21 0 -12 -6 -13 -22 -7 -13 4
-47 7 -75 6 -40 -1 -53 2 -53 13 0 9 11 14 32 14 l31 0 -20 23 c-11 12 -18 28
-16 35 4 10 16 3 42 -21 20 -19 46 -38 59 -42z m-84 -108 c75 -31 72 -54 -4
-31 l-25 7 28 -30 c15 -16 27 -33 27 -37 0 -4 -19 -5 -42 -1 l-43 6 28 -21
c24 -20 37 -50 20 -50 -15 0 -113 84 -113 97 0 14 24 13 84 -4 16 -4 14 2 -12
35 -18 22 -32 43 -32 46 0 11 27 6 84 -17z m-136 -159 c7 -7 12 -20 12 -30 0
-14 8 -18 36 -18 24 0 34 -4 31 -12 -2 -7 -18 -13 -35 -13 -36 0 -41 -9 -14
-24 13 -7 14 -13 5 -22 -11 -11 -38 6 -117 73 -13 10 32 58 54 58 9 0 21 -5
28 -12z m-91 -144 c35 -19 61 -40 57 -45 -3 -5 -15 -7 -26 -4 -26 9 -57 -20
-51 -46 3 -10 1 -19 -5 -19 -12 0 -64 129 -56 141 8 13 12 12 81 -27z"/>
<path d="M1950 741 c0 -5 6 -14 14 -20 16 -13 32 2 21 19 -8 12 -35 13 -35 1z"/>
<path d="M1860 600 c11 -21 22 -25 33 -13 7 6 -21 32 -36 33 -4 0 -3 -9 3 -20z"/>
<path d="M530 422 c-25 -37 -46 -72 -48 -79 -6 -23 165 -116 301 -163 226 -78
498 -91 722 -34 107 28 248 85 333 136 45 27 82 51 82 54 0 9 -105 154 -112
154 -4 0 -34 -16 -67 -35 -137 -81 -284 -128 -446 -144 -101 -10 -246 -2 -336
18 -107 24 -270 93 -341 142 -14 11 -30 19 -35 19 -4 0 -28 -31 -53 -68z
m1285 -43 c21 -33 35 -62 32 -65 -3 -3 -32 6 -66 20 -33 13 -61 22 -61 18 0
-4 9 -20 20 -37 22 -33 25 -45 11 -45 -12 0 -75 109 -67 117 3 3 28 -4 57 -16
28 -12 53 -20 56 -18 2 3 -5 20 -16 38 -17 28 -20 49 -6 49 2 0 20 -27 40 -61z
m-1151 35 c21 -21 10 -37 -14 -22 -28 18 -36 3 -15 -28 23 -35 7 -74 -29 -74
-24 0 -56 23 -56 40 0 18 19 20 28 4 6 -11 16 -15 26 -11 16 6 16 9 2 29 -19
27 -20 50 -4 66 17 17 44 15 62 -4z m126 -135 c0 -60 -3 -80 -12 -77 -7 3 -14
14 -16 25 -4 25 -37 36 -63 20 -38 -23 -30 4 15 58 66 77 76 74 76 -26z m849
35 c12 -15 21 -34 21 -44 0 -29 -39 -70 -68 -70 -58 0 -96 84 -56 124 25 26
79 20 103 -10z m-727 0 c3 -3 0 -29 -8 -57 -17 -65 -17 -67 1 -67 8 0 15 -6
15 -14 0 -12 -7 -13 -31 -6 -18 5 -33 11 -34 12 -5 6 38 138 45 138 4 0 9 -3
12 -6z m544 -75 c17 -69 17 -82 2 -77 -6 2 -17 29 -24 59 -17 69 -17 82 -2 77
6 -2 17 -29 24 -59z m-442 39 c2 -7 8 -29 13 -48 l9 -35 22 43 c21 39 42 55
42 31 0 -19 -65 -129 -74 -126 -5 2 -17 35 -26 75 -14 60 -15 72 -3 72 7 0 15
-6 17 -12z m346 -3 c0 -8 -5 -15 -11 -15 -8 0 -10 -18 -5 -60 6 -50 5 -60 -9
-60 -10 0 -15 9 -15 29 0 49 -12 91 -26 91 -8 0 -14 4 -14 9 0 8 18 14 68 20
6 0 12 -6 12 -14z m-142 -47 c31 -85 34 -98 22 -98 -6 0 -13 7 -16 15 -8 20
-54 19 -69 -2 -7 -9 -17 -13 -23 -9 -7 4 -3 23 12 59 12 28 26 60 29 70 11 30
25 19 45 -35z"/>
<path d="M745 297 c-4 -10 -5 -21 -1 -24 10 -10 18 4 13 24 -4 17 -4 17 -12 0z"/>
<path d="M1549 299 c-18 -34 7 -71 45 -67 26 2 32 8 34 31 2 16 -2 35 -9 43
-17 21 -57 17 -70 -7z"/>
<path d="M1177 211 c-3 -12 1 -22 9 -25 9 -3 14 2 14 14 0 26 -17 34 -23 11z"/>
</g>
</svg>
