<?xml version="1.0" standalone="no"?>
<!DOCTYPE svg PUBLIC "-//W3C//DTD SVG 20010904//EN"
 "http://www.w3.org/TR/2001/REC-SVG-20010904/DTD/svg10.dtd">
<svg version="1.0" xmlns="http://www.w3.org/2000/svg"
 width="399.000000pt" height="440.000000pt" viewBox="0 0 399.000000 440.000000"
 preserveAspectRatio="xMidYMid meet">

<g transform="translate(0.000000,440.000000) scale(0.100000,-0.100000)"
fill="#000000" stroke="none">
<path d="M1899 3669 c-96 -79 -174 -121 -279 -153 -120 -36 -228 -49 -350 -42
-115 6 -167 18 -341 77 -121 41 -167 47 -187 27 -20 -20 -13 -101 18 -203 22
-72 33 -134 41 -237 14 -184 2 -326 -62 -708 -95 -567 -99 -781 -19 -1001 87
-239 262 -385 631 -524 225 -86 459 -218 567 -321 67 -65 76 -63 201 32 162
122 283 189 511 282 253 103 352 157 448 247 139 129 204 260 238 478 25 157
6 377 -76 862 -22 127 -44 277 -50 334 -22 222 -6 433 44 585 31 94 33 146 8
169 -27 24 -48 22 -174 -22 -202 -71 -227 -75 -408 -76 -160 0 -168 1 -270 34
-136 43 -176 64 -285 150 -49 39 -99 71 -111 71 -12 0 -54 -27 -95 -61z m191
-30 c122 -100 276 -165 444 -188 156 -22 278 -7 491 61 167 53 200 57 208 28
3 -12 -1 -45 -9 -73 -8 -29 -24 -86 -35 -127 -17 -60 -22 -114 -26 -273 -6
-208 -1 -263 42 -522 94 -559 114 -786 84 -951 -38 -214 -147 -389 -313 -498
-107 -71 -158 -96 -352 -172 -90 -35 -191 -77 -226 -95 -69 -35 -268 -165
-308 -202 -36 -33 -86 -67 -99 -67 -6 0 -37 24 -69 53 -115 106 -332 230 -529
303 -384 143 -567 294 -656 541 -75 209 -69 391 38 1038 19 116 39 251 45 300
22 203 6 449 -41 606 -33 111 -34 128 -15 154 13 18 19 17 152 -28 166 -55
204 -64 332 -77 129 -14 256 1 391 46 126 42 189 76 270 149 36 32 71 55 84
55 13 0 55 -27 97 -61z"/>
<path d="M1908 3596 c-82 -69 -133 -100 -214 -131 -101 -38 -188 -56 -304 -62
-132 -6 -246 11 -432 68 -76 23 -141 40 -144 37 -3 -3 4 -44 15 -91 74 -305
70 -448 -29 -1072 -64 -406 -79 -622 -51 -760 35 -172 80 -256 206 -381 101
-99 181 -143 461 -249 277 -106 351 -147 569 -316 6 -5 50 21 105 62 137 101
245 159 415 224 349 134 442 184 552 296 86 89 147 199 174 316 20 85 21 112
16 291 -3 108 -13 235 -20 282 -65 381 -101 644 -117 854 -11 140 4 285 44
446 14 55 26 102 26 103 0 2 -37 -9 -83 -24 -211 -69 -291 -83 -457 -83 -126
1 -170 5 -234 22 -119 33 -251 100 -324 165 -39 36 -72 57 -87 57 -14 0 -49
-22 -87 -54z m183 -191 c5 -72 6 -70 -38 -67 -70 5 -83 -10 -83 -100 0 -75 5
-88 26 -69 5 5 32 16 61 25 28 10 63 26 77 37 l26 20 0 -26 c0 -35 -39 -71
-91 -84 -102 -25 -94 -14 -97 -130 -2 -61 1 -108 7 -114 10 -10 103 77 143
134 l17 24 1 -46 c0 -61 -12 -73 -140 -148 l-105 -62 -2 223 c-3 214 -4 224
-24 241 -12 10 -20 20 -17 22 11 12 222 135 229 135 5 0 9 -7 10 -15z m919
-174 c13 -26 14 -641 0 -641 -8 0 -26 35 -118 230 l-21 45 0 -133 c-1 -88 3
-139 11 -152 13 -21 4 -32 -49 -61 -31 -17 -35 -9 -24 42 5 24 8 136 6 247 -3
168 -6 207 -19 221 -15 16 -15 19 1 34 10 8 30 18 44 22 25 6 29 2 65 -76 l39
-83 7 49 c12 97 9 199 -8 223 -9 13 -13 29 -10 37 8 22 63 19 76 -4z m-1225
-223 c0 -123 4 -233 9 -245 7 -18 3 -25 -25 -42 -58 -35 -59 -33 -59 99 0 66
-3 120 -6 120 -4 0 -27 -12 -51 -27 l-45 -28 4 -102 c3 -65 10 -108 18 -118
15 -18 18 -16 -58 -62 -24 -14 -45 -23 -47 -21 -3 2 0 20 5 39 12 39 12 299 1
377 -4 30 -13 57 -20 61 -8 5 -7 12 6 23 20 17 77 48 90 48 4 0 7 -37 5 -81
-2 -45 0 -85 5 -90 5 -5 27 3 52 19 l43 27 -5 70 c-3 39 -8 79 -11 90 -5 16 1
25 31 42 21 12 43 22 48 23 6 0 10 -81 10 -222z m-325 18 c0 -72 -12 -106 -24
-68 -4 10 -18 29 -31 42 l-25 23 0 -229 c0 -187 3 -234 15 -250 23 -30 19 -38
-40 -73 -54 -33 -80 -36 -56 -7 16 19 14 493 -2 499 -12 4 -50 -78 -62 -135
-4 -18 -10 -37 -14 -43 -9 -14 -17 91 -11 143 5 42 7 44 105 106 55 35 110 64
123 65 21 1 22 -3 22 -73z m1234 -50 c111 -46 114 -436 4 -553 -29 -31 -87
-31 -115 0 -36 38 -51 81 -63 169 -26 192 38 375 138 397 1 1 17 -5 36 -13z
m-202 -346 c-2 -132 1 -255 6 -274 9 -30 7 -37 -12 -54 -11 -11 -34 -26 -51
-35 l-30 -15 0 252 c0 138 -4 265 -9 282 -8 30 -6 33 35 58 24 14 49 26 54 26
6 0 9 -85 7 -240z m-127 127 c9 -44 2 -110 -10 -114 -6 -2 -16 10 -22 27 -6
16 -18 30 -26 30 -12 0 -16 -20 -21 -87 -7 -94 6 -377 18 -405 6 -12 -3 -23
-37 -42 -24 -14 -46 -26 -48 -26 -2 0 -3 104 -1 232 2 128 0 243 -3 256 -8 32
-28 15 -51 -44 -9 -24 -20 -41 -25 -38 -5 3 -9 29 -9 59 0 48 3 56 30 75 38
27 183 110 192 110 4 0 10 -15 13 -33z m-281 -229 c15 -68 38 -172 52 -233 13
-60 30 -124 38 -142 16 -34 9 -46 -41 -72 -36 -18 -42 -13 -41 33 1 75 -16 83
-75 35 -32 -26 -37 -36 -37 -72 0 -23 4 -49 10 -57 6 -9 5 -19 -2 -28 -11 -13
-81 -52 -93 -52 -10 0 -5 31 9 59 14 25 37 141 102 491 13 74 27 141 29 148
11 31 23 3 49 -110z m-134 4 c0 -5 -7 -31 -15 -58 -8 -28 -24 -102 -34 -165
-25 -143 -69 -387 -76 -416 -8 -34 -21 -28 -33 15 -5 20 -19 71 -30 112 -11
41 -30 120 -42 175 -22 98 -43 154 -62 166 -11 7 78 69 98 69 9 0 11 -10 7
-32 -4 -30 30 -205 46 -236 10 -18 41 122 48 215 4 53 2 77 -8 89 -11 13 -11
17 1 25 8 4 29 17 45 28 32 21 55 26 55 13z m999 -185 c33 -40 26 -73 -68
-327 -25 -70 -31 -100 -31 -168 0 -58 5 -90 16 -106 14 -23 14 -25 -18 -49
-33 -24 -72 -47 -82 -47 -3 0 2 17 11 38 12 29 14 58 9 140 -5 94 -9 110 -50
197 -25 53 -52 98 -61 101 -23 9 -18 21 22 49 50 33 63 32 63 -7 0 -18 13 -60
28 -93 l29 -60 21 42 c12 23 33 80 47 128 23 81 24 88 9 116 -12 24 -13 34 -3
45 15 18 43 18 58 1z m-1348 -73 c-19 -101 -10 -474 11 -474 15 0 66 91 73
131 4 24 12 39 21 39 11 0 14 -17 14 -72 0 -71 -1 -74 -33 -95 -66 -45 -151
-93 -164 -93 -10 0 -13 54 -13 269 0 198 -3 270 -12 273 -6 2 -8 10 -4 16 8
14 108 73 114 68 2 -2 -1 -30 -7 -62z m-186 -299 c35 -143 66 -267 70 -277 5
-12 -4 -24 -32 -42 -21 -14 -41 -26 -44 -26 -4 0 -9 27 -11 60 -2 33 -7 63
-11 66 -12 12 -79 -30 -88 -54 -15 -38 -11 -102 6 -108 25 -10 17 -21 -42 -58
-52 -33 -86 -39 -65 -13 11 14 41 169 82 427 37 230 51 291 63 287 5 -1 38
-120 72 -262z m1194 100 c-12 -41 -8 -483 4 -507 7 -13 0 -22 -32 -42 -48 -31
-66 -33 -55 -8 9 21 19 330 10 321 -4 -4 -18 -49 -32 -100 -14 -52 -29 -98
-34 -103 -5 -5 -20 13 -34 40 -47 91 -48 90 -43 -71 3 -82 8 -159 11 -170 5
-16 -3 -27 -41 -52 -25 -18 -49 -31 -51 -28 -2 2 2 21 9 42 9 28 10 93 6 253
-6 214 -6 215 -31 237 l-25 21 45 27 46 27 15 -22 c9 -12 28 -45 42 -72 15
-28 31 -51 37 -52 8 -1 24 50 64 206 9 35 21 53 44 68 46 30 56 26 45 -15z
m-1483 -18 l52 0 -14 -33 c-17 -40 -18 -80 -3 -123 6 -18 9 -34 7 -36 -2 -3
-20 6 -39 20 -30 20 -35 28 -31 53 6 40 -12 69 -47 77 -36 8 -87 -16 -96 -45
-14 -43 6 -77 94 -163 104 -101 125 -139 125 -222 -1 -102 -50 -168 -141 -194
-80 -23 -173 41 -173 118 0 80 74 122 132 73 32 -27 30 -36 -10 -37 -37 0 -44
-46 -10 -69 67 -47 147 20 130 111 -3 15 -42 65 -92 118 -100 105 -120 137
-126 209 -10 99 54 164 146 150 25 -4 68 -7 96 -7z m1102 -257 c39 -24 52 -54
52 -121 0 -58 -16 -100 -59 -153 -17 -21 -31 -46 -31 -55 0 -9 19 -54 43 -101
49 -99 89 -131 138 -113 23 9 29 8 29 -2 0 -21 -59 -65 -88 -65 -55 0 -87 32
-143 147 l-54 108 -3 -79 c-2 -43 1 -91 6 -106 9 -24 6 -29 -33 -53 -23 -15
-44 -27 -47 -27 -3 0 -6 118 -7 263 -1 224 -4 264 -17 274 -9 6 -13 16 -10 21
10 16 98 65 131 73 48 11 58 10 93 -11z m-360 -151 c12 -52 41 -173 64 -269
23 -96 47 -184 55 -195 7 -11 13 -22 13 -26 0 -11 -80 -60 -89 -55 -5 3 -11
33 -13 66 -2 33 -7 62 -10 65 -10 10 -107 -49 -114 -68 -10 -31 -6 -121 5
-125 6 -2 11 -8 11 -12 0 -11 -114 -90 -129 -90 -14 0 -14 1 4 38 9 17 18 39
20 49 2 10 8 38 15 63 6 25 33 171 61 325 63 355 59 337 72 332 7 -2 22 -46
35 -98z"/>
<path d="M2637 2912 c-37 -41 -47 -99 -44 -246 4 -146 20 -216 50 -216 26 0
38 27 53 117 29 181 11 362 -37 363 -3 0 -13 -8 -22 -18z"/>
<path d="M2026 2318 c-4 -23 -9 -55 -12 -70 -6 -32 9 -37 36 -13 15 13 16 23
8 63 -14 65 -25 72 -32 20z"/>
<path d="M1326 1908 c-9 -82 -8 -108 8 -108 31 0 37 25 24 94 -7 36 -15 66
-19 66 -3 0 -9 -24 -13 -52z"/>
<path d="M2107 1753 c-9 -8 -9 -155 -1 -205 8 -43 22 -48 51 -15 43 47 59 157
29 202 -16 24 -63 35 -79 18z"/>
<path d="M1809 1365 c-8 -58 -12 -105 -8 -105 20 0 59 25 64 40 3 9 -1 49 -10
89 -8 40 -15 74 -15 77 0 2 -4 4 -8 4 -4 0 -15 -47 -23 -105z"/>
</g>
</svg>
